<svg width="48" height="48" viewBox="0 0 48 48" xmlns="http://www.w3.org/2000/svg">
  <rect width="48" height="48" rx="8" fill="#1877f2"/>
  <path d="M24 6c-3.3 0-6 2.7-6 6s2.7 6 6 6 6-2.7 6-6-2.7-6-6-6z" fill="white"/>
  <path d="M24 21c-3.3 0-6 2.7-6 6v15h3v-6h6v6h3V27c0-3.3-2.7-6-6-6z" fill="white"/>
  <circle cx="12" cy="18" r="3" fill="white" opacity="0.7"/>
  <circle cx="36" cy="18" r="3" fill="white" opacity="0.7"/>
  <circle cx="12" cy="30" r="3" fill="white" opacity="0.5"/>
  <circle cx="36" cy="30" r="3" fill="white" opacity="0.5"/>
  <path d="M8 35h4v2H8zm28 0h4v2h-4z" fill="white" opacity="0.3"/>
</svg>
