<svg width="128" height="128" viewBox="0 0 128 128" xmlns="http://www.w3.org/2000/svg">
  <rect width="128" height="128" rx="20" fill="#1877f2"/>
  <path d="M64 16c-8.8 0-16 7.2-16 16s7.2 16 16 16 16-7.2 16-16-7.2-16-16-16z" fill="white"/>
  <path d="M64 56c-8.8 0-16 7.2-16 16v40h8v-16h16v16h8V72c0-8.8-7.2-16-16-16z" fill="white"/>
  <circle cx="32" cy="48" r="8" fill="white" opacity="0.7"/>
  <circle cx="96" cy="48" r="8" fill="white" opacity="0.7"/>
  <circle cx="32" cy="80" r="8" fill="white" opacity="0.5"/>
  <circle cx="96" cy="80" r="8" fill="white" opacity="0.5"/>
  <path d="M20 92h8v4h-8zm80 0h8v4h-8z" fill="white" opacity="0.3"/>
  <path d="M20 100h12v4H20zm76 0h12v4H76z" fill="white" opacity="0.2"/>
  <circle cx="16" cy="64" r="4" fill="white" opacity="0.3"/>
  <circle cx="112" cy="64" r="4" fill="white" opacity="0.3"/>
</svg>
